<?xml version="1.0" encoding="iso-8859-1"?>
<!-- Generator: Adobe Illustrator 19.0.0, SVG Export Plug-In . SVG Version: 6.00 Build 0)  -->
<svg version="1.1" id="Layer_1" xmlns="http://www.w3.org/2000/svg" xmlns:xlink="http://www.w3.org/1999/xlink" x="0px" y="0px"
	 viewBox="0 0 480 480" style="enable-background:new 0 0 480 480;" xml:space="preserve">
<g>
	<g>
		<path d="M376,136C376,61.008,314.992,0,240,0S104,61.008,104,136c0,39.56,17.496,77.12,47.272,102.84
			C146.8,243.208,144,249.272,144,256c0,6.168,2.408,11.744,6.24,16c-3.84,4.256-6.24,9.832-6.24,16c0,6.168,2.408,11.744,6.24,16
			c-3.84,4.256-6.24,9.832-6.24,16c0,10.416,6.712,19.216,16,22.528V400c0,2.152,0.88,4.16,2.36,5.64l-0.016,0.016l72,72
			c1.56,1.56,3.608,2.344,5.656,2.344c2.048,0,4.096-0.784,5.656-2.344l72-72l-0.016-0.016c1.48-1.48,2.36-3.488,2.36-5.64v-57.472
			c9.288-3.312,16-12.112,16-22.528c0-6.168-2.408-11.744-6.24-16c3.84-4.256,6.24-9.832,6.24-16c0-6.168-2.408-11.744-6.24-16
			c3.84-4.256,6.24-9.832,6.24-16c0-6.728-2.8-12.792-7.272-17.16C358.504,213.12,376,175.56,376,136z M240,460.688L227.312,448
			h25.376L240,460.688z M268.688,432h-57.376l-30.752-30.76l11.44-7.624l19.56,13.04c2.688,1.792,6.184,1.792,8.872,0L240,393.616
			l19.56,13.04c2.688,1.792,6.184,1.792,8.872,0L288,393.616l11.44,7.632L268.688,432z M304,385.048l-11.56-7.704
			c-2.688-1.792-6.184-1.792-8.872,0L264,390.384l-19.56-13.04c-2.688-1.792-6.184-1.792-8.872,0L216,390.384l-19.56-13.04
			c-2.688-1.792-6.184-1.792-8.872,0L176,385.048V344h128V385.048z M312,328H168c-4.408,0-8-3.592-8-8c0-4.408,3.592-8,8-8h144
			c4.408,0,8,3.592,8,8C320,324.408,316.408,328,312,328z M312,296H168c-4.408,0-8-3.592-8-8c0-4.408,3.592-8,8-8h144
			c4.408,0,8,3.592,8,8C320,292.408,316.408,296,312,296z M312,264H168c-4.408,0-8-3.592-8-8c0-4.408,3.592-8,8-8h143.968
			l0.096,0.016C316.44,248.048,320,251.608,320,256C320,260.408,316.408,264,312,264z M214.976,143.016
			c1.464,1.184,3.248,1.776,5.024,1.776s3.56-0.592,5.024-1.776C234.544,135.336,240,124.024,240,112
			c0-1.848-0.176-3.672-0.424-5.48c-0.072-0.52-0.168-1.024-0.264-1.544c-0.248-1.376-0.568-2.736-0.968-4.072
			c-0.128-0.448-0.24-0.896-0.384-1.336c-0.568-1.704-1.232-3.368-2.024-4.976c-0.144-0.288-0.32-0.56-0.472-0.856
			c-0.696-1.336-1.48-2.632-2.328-3.88c-0.144-0.216-0.248-0.456-0.4-0.672c4.68-1.552,9.864-1.552,14.544,0
			c-0.152,0.216-0.256,0.456-0.4,0.672c-0.848,1.256-1.624,2.544-2.328,3.88c-0.152,0.288-0.328,0.56-0.472,0.856
			c-0.792,1.608-1.464,3.28-2.024,4.976c-0.144,0.44-0.256,0.888-0.384,1.336c-0.392,1.336-0.712,2.696-0.968,4.072
			c-0.096,0.512-0.192,1.024-0.264,1.544c-0.264,1.808-0.44,3.632-0.44,5.48c0,12.024,5.456,23.336,14.976,31.016
			c1.464,1.184,3.248,1.776,5.024,1.776s3.56-0.592,5.024-1.776C274.544,135.336,280,124.024,280,112
			c0-1.848-0.176-3.672-0.424-5.48c-0.072-0.52-0.168-1.024-0.264-1.544c-0.248-1.376-0.568-2.736-0.968-4.072
			c-0.128-0.448-0.24-0.896-0.392-1.336c-0.568-1.704-1.232-3.368-2.024-4.976c-0.144-0.304-0.328-0.584-0.488-0.88
			c-0.688-1.32-1.456-2.592-2.288-3.832c-0.152-0.232-0.264-0.48-0.424-0.704C275.072,88.4,277.504,88,280,88
			c12.784,0,24,12.024,24,25.744c0,11.76-5.184,22.832-14.224,30.36l-30.896,25.752c-1.824,1.52-2.88,3.768-2.88,6.144v56h-32v-56
			c0-2.376-1.056-4.624-2.88-6.144l-30.896-25.752c-9.04-7.536-14.224-18.6-14.224-30.36C176,100.024,187.216,88,200,88
			c2.488,0,4.928,0.4,7.264,1.176c-0.16,0.224-0.272,0.48-0.424,0.704c-0.84,1.24-1.6,2.512-2.288,3.832
			c-0.152,0.296-0.336,0.576-0.488,0.88c-0.792,1.608-1.456,3.272-2.024,4.976c-0.144,0.44-0.256,0.896-0.392,1.336
			c-0.392,1.336-0.712,2.696-0.968,4.072c-0.096,0.512-0.192,1.024-0.264,1.544c-0.24,1.808-0.416,3.632-0.416,5.48
			C200,124.024,205.456,135.336,214.976,143.016z M216,112c0-1.592,0.224-3.152,0.536-4.688c0.08-0.368,0.16-0.744,0.256-1.104
			c0.384-1.496,0.872-2.968,1.544-4.368c0.056-0.104,0.12-0.208,0.176-0.312c0.416-0.824,0.976-1.576,1.488-2.352
			c0.512,0.776,1.072,1.528,1.488,2.352c0.048,0.104,0.12,0.2,0.176,0.304c0.672,1.392,1.16,2.864,1.544,4.368
			c0.096,0.368,0.176,0.736,0.256,1.104c0.312,1.544,0.536,3.104,0.536,4.696s-0.224,3.152-0.536,4.688
			c-0.08,0.368-0.16,0.744-0.256,1.104c-0.384,1.496-0.872,2.968-1.544,4.368c-0.048,0.104-0.12,0.208-0.176,0.312
			c-0.416,0.824-0.976,1.576-1.488,2.352c-0.512-0.776-1.072-1.528-1.488-2.352c-0.056-0.104-0.128-0.208-0.176-0.312
			c-0.672-1.4-1.16-2.872-1.544-4.368c-0.096-0.368-0.176-0.736-0.256-1.104C216.224,115.152,216,113.592,216,112z M256,112
			c0-1.592,0.224-3.152,0.536-4.688c0.08-0.368,0.16-0.744,0.256-1.104c0.384-1.496,0.872-2.968,1.544-4.368
			c0.056-0.104,0.12-0.208,0.176-0.312c0.416-0.824,0.976-1.576,1.488-2.352c0.512,0.776,1.072,1.528,1.488,2.352
			c0.048,0.104,0.12,0.2,0.176,0.304c0.672,1.392,1.16,2.864,1.544,4.368c0.096,0.368,0.176,0.736,0.256,1.104
			c0.312,1.544,0.536,3.104,0.536,4.696s-0.224,3.152-0.536,4.688c-0.08,0.368-0.16,0.744-0.256,1.104
			c-0.384,1.496-0.872,2.968-1.544,4.368c-0.048,0.104-0.12,0.208-0.176,0.312c-0.416,0.824-0.976,1.576-1.488,2.352
			c-0.512-0.776-1.072-1.528-1.488-2.352c-0.056-0.104-0.128-0.208-0.176-0.312c-0.672-1.4-1.16-2.872-1.544-4.368
			c-0.096-0.368-0.176-0.736-0.256-1.104C256.224,115.152,256,113.592,256,112z M311.824,232H272v-52.256l28.016-23.352
			C312.72,145.816,320,130.264,320,113.744C320,91.12,301.68,72,280,72c-7.104,0-13.912,1.952-20.024,5.576
			c-12.312-7.136-27.624-7.136-39.944,0C213.912,73.952,207.104,72,200,72c-21.68,0-40,19.12-40,41.744
			c0,16.52,7.28,32.072,19.984,42.656L208,179.744V232h-39.824C137.96,209.344,120,173.68,120,136c0-66.168,53.832-120,120-120
			s120,53.832,120,120C360,173.68,342.04,209.344,311.824,232z"/>
	</g>
</g>
<g>
	<g>
		<rect x="361.368" y="16.013" transform="matrix(0.7071 -0.7071 0.7071 0.7071 95.4905 278.5592)" width="45.256" height="16"/>
	</g>
</g>
<g>
	<g>
		<rect x="375.986" y="225.358" transform="matrix(0.7071 -0.7071 0.7071 0.7071 -62.8857 344.1524)" width="16" height="45.256"/>
	</g>
</g>
<g>
	<g>
		<rect x="400" y="128" width="48" height="16"/>
	</g>
</g>
<g>
	<g>
		<rect x="88.002" y="1.376" transform="matrix(0.7071 -0.7071 0.7071 0.7071 11.1452 74.9142)" width="16" height="45.256"/>
	</g>
</g>
<g>
	<g>
		<rect x="73.373" y="239.996" transform="matrix(0.7071 -0.7071 0.7071 0.7071 -147.2421 140.5192)" width="45.256" height="16"/>
	</g>
</g>
<g>
	<g>
		<rect x="32" y="128" width="48" height="16"/>
	</g>
</g>
<g>
	<g>
		<rect x="336" y="384" width="16" height="16"/>
	</g>
</g>
<g>
	<g>
		<rect x="368" y="384" width="16" height="16"/>
	</g>
</g>
<g>
	<g>
		<rect x="400" y="384" width="16" height="16"/>
	</g>
</g>
<g>
	<g>
		<rect x="64" y="384" width="16" height="16"/>
	</g>
</g>
<g>
	<g>
		<rect x="96" y="384" width="16" height="16"/>
	</g>
</g>
<g>
	<g>
		<rect x="128" y="384" width="16" height="16"/>
	</g>
</g>
<g>
</g>
<g>
</g>
<g>
</g>
<g>
</g>
<g>
</g>
<g>
</g>
<g>
</g>
<g>
</g>
<g>
</g>
<g>
</g>
<g>
</g>
<g>
</g>
<g>
</g>
<g>
</g>
<g>
</g>
</svg>
