<?xml version="1.0" encoding="iso-8859-1"?>
<!-- Generator: Adobe Illustrator 19.0.0, SVG Export Plug-In . SVG Version: 6.00 Build 0)  -->
<svg version="1.1" id="Capa_1" xmlns="http://www.w3.org/2000/svg" xmlns:xlink="http://www.w3.org/1999/xlink" x="0px" y="0px"
	 viewBox="0 0 511 511" style="enable-background:new 0 0 511 511;" xml:space="preserve">
<g>
	<path d="M471.5,28h-432C17.72,28,0,45.72,0,67.5v256C0,345.28,17.72,363,39.5,363h176c4.142,0,7.5-3.358,7.5-7.5
		s-3.358-7.5-7.5-7.5h-176C25.991,348,15,337.009,15,323.5v-256C15,53.991,25.991,43,39.5,43h432c13.509,0,24.5,10.991,24.5,24.5
		v256c0,4.142,3.358,7.5,7.5,7.5s7.5-3.358,7.5-7.5v-256C511,45.72,493.28,28,471.5,28z"/>
	<path d="M63.5,307h152c4.142,0,7.5-3.358,7.5-7.5s-3.358-7.5-7.5-7.5h-152c-4.142,0-7.5,3.358-7.5,7.5S59.358,307,63.5,307z"/>
	<path d="M151,155.5v-32c0-12.958-10.542-23.5-23.5-23.5h-48C66.542,100,56,110.542,56,123.5v32c0,12.958,10.542,23.5,23.5,23.5h48
		C140.458,179,151,168.458,151,155.5z M71,155.5V147h8.5c4.142,0,7.5-3.358,7.5-7.5s-3.358-7.5-7.5-7.5H71v-8.5
		c0-4.687,3.813-8.5,8.5-8.5H96v49H79.5C74.813,164,71,160.187,71,155.5z M127.5,164H111v-49h16.5c4.687,0,8.5,3.813,8.5,8.5v8.5
		h-8.5c-4.142,0-7.5,3.358-7.5,7.5s3.358,7.5,7.5,7.5h8.5v8.5C136,160.187,132.187,164,127.5,164z"/>
	<path d="M56,251.5c0,4.142,3.358,7.5,7.5,7.5s7.5-3.358,7.5-7.5v-16c0-4.142-3.358-7.5-7.5-7.5s-7.5,3.358-7.5,7.5V251.5z"/>
	<path d="M80,235.5v16c0,4.142,3.358,7.5,7.5,7.5s7.5-3.358,7.5-7.5v-16c0-4.142-3.358-7.5-7.5-7.5S80,231.358,80,235.5z"/>
	<path d="M104,235.5v16c0,4.142,3.358,7.5,7.5,7.5s7.5-3.358,7.5-7.5v-16c0-4.142-3.358-7.5-7.5-7.5S104,231.358,104,235.5z"/>
	<path d="M128,235.5v16c0,4.142,3.358,7.5,7.5,7.5s7.5-3.358,7.5-7.5v-16c0-4.142-3.358-7.5-7.5-7.5S128,231.358,128,235.5z"/>
	<path d="M175,251.5v-16c0-4.142-3.358-7.5-7.5-7.5s-7.5,3.358-7.5,7.5v16c0,4.142,3.358,7.5,7.5,7.5S175,255.642,175,251.5z"/>
	<path d="M199,251.5v-16c0-4.142-3.358-7.5-7.5-7.5s-7.5,3.358-7.5,7.5v16c0,4.142,3.358,7.5,7.5,7.5S199,255.642,199,251.5z"/>
	<path d="M215.5,228c-4.142,0-7.5,3.358-7.5,7.5v16c0,4.142,3.358,7.5,7.5,7.5s7.5-3.358,7.5-7.5v-16
		C223,231.358,219.642,228,215.5,228z"/>
	<path d="M247,251.5v-16c0-4.142-3.358-7.5-7.5-7.5s-7.5,3.358-7.5,7.5v16c0,4.142,3.358,7.5,7.5,7.5S247,255.642,247,251.5z"/>
	<path d="M415.5,179c21.78,0,39.5-17.72,39.5-39.5S437.28,100,415.5,100h-48c-21.78,0-39.5,17.72-39.5,39.5s17.72,39.5,39.5,39.5
		H415.5z M343,139.5c0-13.509,10.991-24.5,24.5-24.5h48c13.509,0,24.5,10.991,24.5,24.5S429.009,164,415.5,164h-48
		C353.991,164,343,153.009,343,139.5z"/>
	<path d="M473.781,274.948c-1.705-1.179-3.822-1.599-5.848-1.164c-6.816,1.47-13.691,2.216-20.434,2.216
		c-33.301,0-63.826-16.915-81.652-45.247c-1.373-2.182-3.77-3.506-6.348-3.506s-4.975,1.324-6.348,3.506
		C335.326,259.085,304.801,276,271.5,276c-6.742,0-13.617-0.746-20.434-2.216c-2.024-0.436-4.143-0.016-5.848,1.164
		c-1.705,1.179-2.846,3.012-3.151,5.062c-1.372,9.2-2.067,18.449-2.067,27.49c0,78.615,49.25,152.258,117.106,175.108
		c0.776,0.261,1.585,0.392,2.394,0.392s1.617-0.131,2.394-0.392C429.75,459.758,479,386.115,479,307.5
		c0-9.041-0.695-18.29-2.067-27.49C476.627,277.959,475.486,276.127,473.781,274.948z M285.252,407.035
		C265.744,377.584,255,342.235,255,307.5c0-5.801,0.313-11.699,0.932-17.616c5.206,0.742,10.417,1.116,15.568,1.116
		c30.881,0,59.683-12.584,80.5-34.458v208.044C326.04,453.367,302.616,433.248,285.252,407.035z M433.748,407.035
		c-17.364,26.213-40.787,46.332-66.748,57.552V256.542C387.817,278.416,416.619,291,447.5,291c5.151,0,10.362-0.375,15.568-1.116
		c0.619,5.917,0.932,11.815,0.932,17.616C464,342.235,453.256,377.584,433.748,407.035z"/>
</g>
<g>
</g>
<g>
</g>
<g>
</g>
<g>
</g>
<g>
</g>
<g>
</g>
<g>
</g>
<g>
</g>
<g>
</g>
<g>
</g>
<g>
</g>
<g>
</g>
<g>
</g>
<g>
</g>
<g>
</g>
</svg>
