<svg width="64" height="64" xmlns="http://www.w3.org/2000/svg"><g data-name="15_Knowleade"><path style="fill:#0455bf" d="M57 9h2v14h-2z"/><path style="fill:#004787" d="M57 9h1v14h-1z"/><path d="M61 37h-6a1 1 0 0 1-1-1V24a1 1 0 0 1 1-1h6a1 1 0 0 1 1 1v12a1 1 0 0 1-1 1Z" style="fill:#f74e0c"/><path d="M62 35a6 6 0 0 1-6-6v-6h-1a1 1 0 0 0-1 1v12a1 1 0 0 0 1 1h6a1 1 0 0 0 1-1v-1Z" style="fill:#cc2600"/><path d="M51 28H17a1 1 0 0 1-1-1V9a1 1 0 0 1 1-1h34a1 1 0 0 1 1 1v18a1 1 0 0 1-1 1Z" style="fill:#0455bf"/><path d="M36 26A18 18 0 0 1 18 8h-1a1 1 0 0 0-1 1v18a1 1 0 0 0 1 1h34a1 1 0 0 0 1-1v-1Z" style="fill:#004787"/><path d="M60 10H8a1 1 0 0 1-1-1V5a1 1 0 0 1 1-1h52a1 1 0 0 1 1 1v4a1 1 0 0 1-1 1Z" style="fill:#0455bf"/><path d="M10 8a1 1 0 0 1-1-1V4H8a1 1 0 0 0-1 1v4a1 1 0 0 0 1 1h52a1 1 0 0 0 1-1V8Z" style="fill:#004787"/><path d="M58 56H12a6.013 6.013 0 0 1-5.976-6.6 6.185 6.185 0 0 1 6.2-5.4H58a1 1 0 0 1 1 1v10a1 1 0 0 1-1 1ZM42.88 38H6a1 1 0 0 1-1-1v-6a1 1 0 0 1 1-1h37a4 4 0 0 1 3.923 4.788A4.058 4.058 0 0 1 42.88 38Z" style="fill:#fdfeff"/><path d="M59 60H12.32a10.2 10.2 0 0 1-10.3-9.313 9.927 9.927 0 0 1 2.68-7.514A10.035 10.035 0 0 1 12 40h47a3 3 0 0 1 3 3 3.017 3.017 0 0 1-3 3H12.22a4.166 4.166 0 0 0-4.2 3.6 3.969 3.969 0 0 0 1.02 3.083A4.015 4.015 0 0 0 12 54h47a3 3 0 0 1 3 3 3.017 3.017 0 0 1-3 3Z" style="fill:#febc00"/><path d="M61 58H14.32a10.2 10.2 0 0 1-10.3-9.313 9.91 9.91 0 0 1 1.96-6.651 9.87 9.87 0 0 0-3.96 8.651A10.2 10.2 0 0 0 12.32 60H59a2.987 2.987 0 0 0 2.86-2.139A3 3 0 0 1 61 58Z" style="fill:#edaa03"/><path d="M42.76 42H6a3 3 0 0 1-3-3 3.017 3.017 0 0 1 3-3h36.88a2.082 2.082 0 0 0 2.078-1.587A2 2 0 0 0 43 32H6a3 3 0 0 1-3-3 3.017 3.017 0 0 1 3-3h37a8.008 8.008 0 0 1 7.933 9.046A8.139 8.139 0 0 1 42.76 42Z" style="fill:#f74e0c"/><path d="M49.009 28.723a7.979 7.979 0 0 0-1.436-1.273 8.033 8.033 0 0 1 1.36 5.6A8.139 8.139 0 0 1 40.76 40H4a2.943 2.943 0 0 1-.859-.141A2.993 2.993 0 0 0 6 42h36.76a8.139 8.139 0 0 0 8.173-6.954 8.024 8.024 0 0 0-1.924-6.323Z" style="fill:#cc2600"/><path style="fill:#dfeaef" d="M31 33h11v2H31zM39 49h20v2H39zM35 49h2v2h-2zM27 33h2v2h-2z"/></g></svg>